# xmcd
#
# Track frame offsets:
# 150
# 24495
# 41456
# 58078
# 75065
# 92857
# 111499
# 129622
# 145978
# 164712
# 184696
# 204684
# 224241
# 241486
# 255371
# 274646
# 294942
#
# Disc length: 4150 seconds
#
# Revision: 0
# Processed by: cddbd v1.4PL0 Copyright (c) Steve Scherf et al.
# Submitted via: Audion 3.0.2 (http://www.panic.com/audion/)
#
DISCID=fe103411
DTITLE=Boa song - Boa
DYEAR=1900
DGENRE=
TTITLE0=Boa 1
TTITLE1=Boa2
TTITLE2=Boa3
TTITLE3=Boa4
TTITLE4=Boa5
TTITLE5=Boa6
TTITLE6=Boa7
TTITLE7=Boa8
TTITLE8=Boa9
TTITLE9=Boa10
TTITLE10=Boa11
TTITLE11=Boa12
TTITLE12=Boa13
TTITLE13=Boa14
TTITLE14=Boa15
TTITLE15=Boa16
TTITLE16=Boa17
EXTD=
EXTT0=
EXTT1=
EXTT2=
EXTT3=
EXTT4=
EXTT5=
EXTT6=
EXTT7=
EXTT8=
EXTT9=
EXTT10=
EXTT11=
EXTT12=
EXTT13=
EXTT14=
EXTT15=
EXTT16=
PLAYORDER=
